<mxfile host="65bd71144e">
    <diagram id="R7OrwXng8mEVY9agTZvh" name="projet">
        <mxGraphModel dx="896" dy="619" grid="1" gridSize="10" guides="1" tooltips="1" connect="1" arrows="1" fold="1" page="1" pageScale="1" pageWidth="827" pageHeight="1169" math="0" shadow="0">
            <root>
                <mxCell id="0"/>
                <mxCell id="1" parent="0"/>
                <mxCell id="2" value="" style="rounded=0;whiteSpace=wrap;html=1;" parent="1" vertex="1">
                    <mxGeometry x="320" y="80" width="460" height="660" as="geometry"/>
                </mxCell>
                <mxCell id="3" value="audiologiste" style="shape=umlActor;verticalLabelPosition=bottom;verticalAlign=top;html=1;outlineConnect=0;" parent="1" vertex="1">
                    <mxGeometry x="220" y="180" width="30" height="60" as="geometry"/>
                </mxCell>
                <mxCell id="4" value="utilisateur&lt;br&gt;" style="shape=umlActor;verticalLabelPosition=bottom;verticalAlign=top;html=1;outlineConnect=0;" parent="1" vertex="1">
                    <mxGeometry x="220" y="340" width="30" height="60" as="geometry"/>
                </mxCell>
                <mxCell id="5" value="sensibiliser les sourds et les entendants sur les difficultés&amp;nbsp; de l'audition liés à l'apprentissage de l'anglais&amp;nbsp;" style="ellipse;whiteSpace=wrap;html=1;" parent="1" vertex="1">
                    <mxGeometry x="440" y="90" width="170" height="100" as="geometry"/>
                </mxCell>
                <mxCell id="6" value="Définition du projet" style="text;html=1;strokeColor=none;fillColor=none;align=center;verticalAlign=middle;whiteSpace=wrap;rounded=0;" parent="1" vertex="1">
                    <mxGeometry x="320" y="80" width="110" height="30" as="geometry"/>
                </mxCell>
                <mxCell id="15" value="mettre au point des outils qui favorisent l'apprentissage aussi bien pour les entendants et les malentendants" style="ellipse;whiteSpace=wrap;html=1;" vertex="1" parent="1">
                    <mxGeometry x="390" y="200" width="190" height="130" as="geometry"/>
                </mxCell>
                <mxCell id="16" value="éduquer sur les différences de handicap" style="ellipse;whiteSpace=wrap;html=1;" vertex="1" parent="1">
                    <mxGeometry x="620" y="100" width="120" height="80" as="geometry"/>
                </mxCell>
                <mxCell id="17" value="faire tomber les a priori concernant les appareils par exemple" style="ellipse;whiteSpace=wrap;html=1;" vertex="1" parent="1">
                    <mxGeometry x="650" y="190" width="120" height="80" as="geometry"/>
                </mxCell>
                <mxCell id="18" value="apprentissage de l'anglais" style="ellipse;whiteSpace=wrap;html=1;" vertex="1" parent="1">
                    <mxGeometry x="620" y="280" width="120" height="80" as="geometry"/>
                </mxCell>
                <mxCell id="19" value="innover sur les methodes de navigation" style="ellipse;whiteSpace=wrap;html=1;" vertex="1" parent="1">
                    <mxGeometry x="500" y="330" width="120" height="80" as="geometry"/>
                </mxCell>
                <mxCell id="20" value="innover sur les methodes d'affichage" style="ellipse;whiteSpace=wrap;html=1;" vertex="1" parent="1">
                    <mxGeometry x="354" y="340" width="120" height="80" as="geometry"/>
                </mxCell>
                <mxCell id="22" value="retour d'expérience pour enrichir les données récoltées" style="ellipse;whiteSpace=wrap;html=1;" vertex="1" parent="1">
                    <mxGeometry x="350" y="440" width="120" height="80" as="geometry"/>
                </mxCell>
                <mxCell id="23" value="méthode alternative d'apprentissage par la clarté" style="ellipse;whiteSpace=wrap;html=1;" vertex="1" parent="1">
                    <mxGeometry x="490" y="430" width="120" height="80" as="geometry"/>
                </mxCell>
                <mxCell id="24" value="se focaliser sur l'handicap de Lisa puis" style="ellipse;whiteSpace=wrap;html=1;" vertex="1" parent="1">
                    <mxGeometry x="630" y="370" width="120" height="80" as="geometry"/>
                </mxCell>
            </root>
        </mxGraphModel>
    </diagram>
</mxfile>